<svg xmlns="http://www.w3.org/2000/svg" viewBox="0 0 1280 720" role="img" aria-labelledby="title desc">
  <title id="title">Illustration av växande investering</title>
  <desc id="desc">En graf som pekar uppåt med mynt i förgrunden.</desc>
  <defs>
    <linearGradient id="bg" x1="0%" x2="100%" y1="0%" y2="100%">
      <stop offset="0%" stop-color="#0d1b2a" />
      <stop offset="50%" stop-color="#102b45" />
      <stop offset="100%" stop-color="#0b3a5c" />
    </linearGradient>
    <linearGradient id="line" x1="0%" x2="100%">
      <stop offset="0%" stop-color="#26d07c" />
      <stop offset="100%" stop-color="#7cf3c5" />
    </linearGradient>
    <linearGradient id="coin" x1="0" x2="0" y1="0" y2="1">
      <stop offset="0%" stop-color="#ffd166" />
      <stop offset="100%" stop-color="#f7b733" />
    </linearGradient>
    <filter id="shadow" x="-20%" y="-20%" width="140%" height="140%">
      <feDropShadow dx="0" dy="12" stdDeviation="18" flood-color="#04111f" flood-opacity="0.35" />
    </filter>
  </defs>
  <rect width="1280" height="720" fill="url(#bg)" />
  <g opacity="0.15">
    <circle cx="180" cy="120" r="90" fill="#7cf3c5" />
    <circle cx="1120" cy="200" r="120" fill="#ffd166" />
    <circle cx="680" cy="80" r="70" fill="#c4f1f9" />
  </g>
  <g transform="translate(80,100)">
    <rect x="0" y="440" width="1120" height="12" rx="6" fill="#0a233a" />
    <polyline points="0,410 180,360 320,390 520,300 720,340 940,210 1120,240" fill="none" stroke="url(#line)" stroke-width="16" stroke-linecap="round" stroke-linejoin="round" filter="url(#shadow)" />
    <g fill="#26d07c" opacity="0.45">
      <circle cx="180" cy="360" r="12" />
      <circle cx="320" cy="390" r="12" />
      <circle cx="520" cy="300" r="12" />
      <circle cx="720" cy="340" r="12" />
      <circle cx="940" cy="210" r="12" />
      <circle cx="1120" cy="240" r="12" />
    </g>
  </g>
  <g transform="translate(260,320)" filter="url(#shadow)">
    <ellipse cx="150" cy="230" rx="140" ry="28" fill="#071524" opacity="0.45" />
    <circle cx="120" cy="140" r="90" fill="url(#coin)" />
    <circle cx="120" cy="140" r="72" fill="#ffe9b3" opacity="0.65" />
    <circle cx="120" cy="140" r="44" fill="#ffd166" />
    <path d="M120 94c18 0 32 12 32 30 0 16-12 26-28 29l-4 22h-20l3-18c-13-3-23-13-23-27 0-19 15-36 40-36zm-6 25c-10 0-16 7-16 14 0 7 4 11 11 11 10 0 17-7 17-15 0-6-4-10-12-10z" fill="#945f0d" />
  </g>
  <g transform="translate(760,340)" filter="url(#shadow)">
    <ellipse cx="120" cy="210" rx="115" ry="22" fill="#071524" opacity="0.45" />
    <circle cx="100" cy="130" r="74" fill="url(#coin)" />
    <circle cx="100" cy="130" r="58" fill="#ffe9b3" opacity="0.65" />
    <circle cx="100" cy="130" r="36" fill="#ffd166" />
    <path d="M100 92c14 0 26 9 26 24 0 13-9 21-22 23l-3 18H85l3-14c-10-3-18-11-18-22 0-16 13-29 30-29zm-4 21c-8 0-14 5-14 11 0 6 3 9 9 9 8 0 14-6 14-12 0-5-3-8-9-8z" fill="#945f0d" />
  </g>
</svg>
